<svg xmlns="http://www.w3.org/2000/svg" xmlns:xlink="http://www.w3.org/1999/xlink" viewBox="-203 -255 1270 510" width="256px" height="102px" preserveAspectRatio="xMidYMid meet">
<!-- Handmade by Kroum Tzanev (Inkscape used to vectorise text), January 2011  -->

<!--========================== les cercles et les segments ===============================-->
<g stroke="rgb(109,153,124)" stroke-width="7" stroke-opacity="0.3" fill="none"> 
    <circle r="50"  cx="0" cy="-100" />
    <circle r="100"  cx="0" cy="-100" />
    <circle r="150"  cx="0" cy="-100" />
    <circle r="50"  cx="0" cy="100" />
    <circle r="100"  cx="0" cy="100" />
    <circle r="150"  cx="0" cy="100" />
    
    <path d="M -150,-250 v500 M -100,-250 v500 M 100,-250 v500 M 150,-250 v500" />
    <path d="M -200,-200 h400 M -200,-150 h400 M -200,150 h400 M -200,200 h400" />    
</g>

<!--============================ la definition du gradient ===============================-->
<defs>
    <linearGradient id="GradientUp" x1="0" y1="0%" x2="0" y2="100%">
		<stop offset="0" style="stop-color:rgb(64,214,114);stop-opacity:1"/>
        <stop offset="1" style="stop-color:rgb(27,89,48);stop-opacity:1"/>
    </linearGradient>
</defs>
<!--====================================== le P  =========================================-->
<g style="fill:url(#GradientUp);fill-opacity:1;stroke:none">
    <path d="M 0,200 A 100,100 0 0 1 0,0 100,100 0 0 0 0,-200 H -150 V 200 z
			 M 0,-50 A 150,150 0 0 0 -100,-11.8 V -150 H 0 A 50,50 0 0 1 0,-50 z
			 M 0,50 A 150,150 0 0 0 100,11.8 V 150 H 0 A 50,50 0 0 1 0,50 z"/>  
</g>

<!--=========================  Laboratoire Paul Painleve =================================-->
<g style="fill:black;fill-rule:evenodd;fill-opacity:1;stroke:black;stroke-width:1">
    <path d="m 223.8042,-45 0,-1.863281 c 5.22753,2e-6 9.26463,-1.475095 12.11133,-4.425293 1.60447,-1.656242 2.70432,-3.765371 3.29956,-6.327393 0.59519,-2.561996 0.8928,-6.482647 0.89282,-11.761963 l 0,-57.21826 c -2e-5,-5.48624 -0.32351,-9.53629 -0.97046,-12.15015 -0.64699,-2.61367 -1.85036,-4.74868 -3.61011,-6.40503 -1.44923,-1.3456 -3.06666,-2.329 -4.85229,-2.95019 -1.78565,-0.62099 -4.07594,-0.9833 -6.87085,-1.08692 l 0,-1.78564 49.60986,0 0,1.78564 c -2.84673,0.15538 -5.17583,0.54356 -6.9873,1.16455 -1.81157,0.6212 -3.41606,1.6046 -4.81348,2.9502 -1.7598,1.70811 -2.95023,3.85605 -3.57129,6.44385 -0.62113,2.58798 -0.93168,6.59921 -0.93164,12.03369 l 0,44.796385 c -4e-5,6.883819 0.18112,12.007838 0.54346,15.372071 0.36227,3.364276 1.061,6.107437 2.09619,8.229492 1.81148,3.726572 4.50289,6.456794 8.07422,8.190674 3.57124,1.73389 8.30707,2.600832 14.20752,2.60083 6.15911,2e-6 11.34783,-0.815183 15.56616,-2.445557 4.21818,-1.630365 7.67301,-4.153555 10.3645,-7.56958 1.81144,-2.329087 3.29947,-4.968733 4.46411,-7.918945 1.16446,-2.950172 2.23843,-6.832004 3.22193,-11.645508 l 1.86328,0.155273 L 316.50244,-45 z" />
    <path d="m 385.36621,-52.530762 1.31983,0.776367 c -1.86335,5.434572 -6.13337,8.151855 -12.81006,8.151856 -3.67486,-10e-7 -6.72857,-0.905762 -9.16114,-2.717285 -1.60453,-1.190427 -3.26078,-3.260738 -4.96875,-6.210938 -3.46781,3.105473 -6.08158,5.149905 -7.8413,6.133301 -3.36429,1.863281 -7.27201,2.794921 -11.72315,2.794922 -5.69338,-10e-7 -10.20924,-1.371582 -13.54761,-4.114746 -3.33838,-2.743159 -5.00757,-6.443839 -5.00757,-11.102051 0,-4.29588 1.37158,-7.893045 4.11475,-10.791504 1.55272,-1.604466 3.33837,-2.88547 5.35693,-3.843017 2.01854,-0.957491 4.94286,-1.927949 8.77295,-2.911377 4.50291,-1.13864 7.82834,-2.096158 9.97632,-2.872559 2.14792,-0.776332 3.9465,-1.707972 5.39575,-2.794922 1.65621,-1.190391 2.79488,-2.587851 3.41602,-4.192383 0.62105,-1.604449 0.9316,-3.830033 0.93164,-6.676757 -4e-5,-6.055611 -1.13871,-10.480895 -3.41602,-13.275875 -1.03519,-1.29389 -2.36795,-2.32904 -3.99829,-3.10547 -1.6304,-0.77631 -3.32547,-1.16449 -5.0852,-1.16455 -2.1221,6e-5 -4.01126,0.54352 -5.66748,1.63037 -1.65627,1.08697 -2.89846,2.58795 -3.72656,4.50293 l -1.94092,4.502927 c -1.03518,2.432669 -2.89846,3.648977 -5.58985,3.648925 -1.75977,5.2e-5 -3.23487,-0.582223 -4.42529,-1.746826 -1.19044,-1.164497 -1.78565,-2.626656 -1.78564,-4.386476 -1e-5,-2.63959 1.86327,-4.86517 5.58984,-6.67676 2.01854,-0.93157 4.51585,-1.695 7.49194,-2.29028 2.97605,-0.59515 5.88743,-0.89275 8.73413,-0.89282 3.20896,7e-5 6.54733,0.41413 10.01514,1.24219 3.46773,0.82819 6.36617,1.88922 8.69531,3.1831 3.36421,1.9151 5.4604,4.39947 6.28858,7.45313 0.41401,1.552784 0.62104,4.166551 0.62109,7.841305 l 0,28.725586 c -5e-5,4.865248 0.20698,8.177745 0.6211,9.9375 0.87982,3.67481 3.00189,5.51221 6.36621,5.512207 1.60443,3e-6 2.85955,-0.284665 3.76538,-0.854004 0.90569,-0.569331 1.97967,-1.708002 3.22192,-3.416016 z m -25.62012,-30.588867 c -2.79496,2.329137 -5.87454,4.373569 -9.23877,6.133301 -3.77835,2.018585 -6.39211,3.545438 -7.8413,4.580566 -1.44925,1.035183 -2.76907,2.277369 -3.95948,3.726563 -2.43263,3.001974 -3.64894,6.495622 -3.64892,10.480957 -2e-5,3.416025 0.94456,6.236823 2.83374,8.462402 1.88913,2.225589 4.28293,3.33838 7.18139,3.338379 2.53611,10e-7 4.9299,-0.789304 7.1814,-2.36792 2.25143,-1.578608 3.94649,-3.687737 5.08521,-6.327392 1.60445,-3.46776 2.40669,-8.488263 2.40673,-15.061524 z" />
    <path d="m 409.6665,-102.45117 c 2.17381,-2.69135 4.24412,-4.68402 6.21094,-5.97803 3.98532,-2.53607 8.74703,-3.80413 14.28516,-3.8042 7.86713,7e-5 14.72504,2.51032 20.57373,7.53076 7.24602,6.159237 10.86906,14.85454 10.86914,26.085941 -8e-5,11.231467 -3.46785,20.082045 -10.40332,26.551758 -6.00397,5.641603 -13.69,8.462401 -23.05811,8.462402 -4.91703,-10e-7 -9.08353,-0.672852 -12.49951,-2.018555 l -4.34766,-1.785644 c -1.19045,-0.465818 -2.25148,-0.698728 -3.1831,-0.698731 -2.63967,3e-6 -4.96877,2.14795 -6.98731,6.443848 l -3.10546,0 0,-91.067869 c -2e-5,-5.79678 -0.91872,-9.95034 -2.75611,-12.4607 -1.83741,-2.51015 -4.92993,-3.76527 -9.27759,-3.76538 l 0,-1.86328 23.6792,-3.26074 z m 0,23.523924 c -2e-5,5.538114 0.31053,10.636254 0.93164,15.294434 0.62107,4.658217 1.42332,8.04835 2.40674,10.17041 1.1904,2.536138 2.96311,4.528812 5.31812,5.978027 2.35494,1.44922 5.03341,2.173828 8.0354,2.173828 6.3144,0 11.529,-3.00195 15.6438,-9.005859 4.11468,-6.003891 6.17205,-13.638161 6.17212,-22.902832 -7e-5,-4.865198 -0.67292,-9.484578 -2.01856,-13.858155 -1.34576,-4.373484 -3.2608,-8.087104 -5.74512,-11.140867 -1.96685,-2.53607 -4.14067,-4.46405 -6.52148,-5.78394 -2.38091,-1.31976 -4.81352,-1.97967 -7.29785,-1.97973 -3.00199,6e-5 -5.79691,0.91876 -8.38477,2.7561 -2.58792,1.83746 -4.50296,4.23126 -5.74511,7.1814 -1.86331,4.347703 -2.79495,11.386759 -2.79493,21.117184 z" />
    <path d="m 470.99951,-77.762695 c 0,-8.384725 3.10546,-15.863721 9.31641,-22.437015 7.55662,-7.97064 16.58835,-11.95598 27.09521,-11.95605 10.50679,7e-5 19.51264,3.98541 27.01758,11.95605 6.21086,6.625052 9.31633,14.129927 9.31641,22.514651 -8e-5,8.281275 -2.95027,15.656756 -8.85059,22.126465 -7.24615,7.970706 -16.40728,11.956054 -27.4834,11.956055 -11.0762,-10e-7 -20.2632,-3.985349 -27.56103,-11.956055 -2.84669,-3.105455 -5.03346,-6.573225 -6.56031,-10.40332 -1.52686,-3.830053 -2.29028,-7.763643 -2.29028,-11.800781 z m 14.12988,-0.854004 c -10e-6,9.005884 2.01854,16.640153 6.05567,22.902832 4.55466,6.987308 10.11862,10.480957 16.69189,10.480957 2.79488,0 5.51216,-0.776366 8.15186,-2.329102 2.63959,-1.55273 4.91694,-3.726556 6.83203,-6.521484 2.0185,-2.898426 3.64887,-6.534408 4.89111,-10.907959 1.24213,-4.373511 1.86322,-8.604708 1.86328,-12.693604 -6e-5,-4.244103 -0.65997,-8.527058 -1.97973,-12.848877 -1.31989,-4.321727 -3.09259,-8.035346 -5.31812,-11.140864 -4.24419,-5.84857 -9.44584,-8.77289 -15.60498,-8.77295 -5.84867,6e-5 -10.89505,3.07965 -15.13916,9.23877 -4.29592,6.159225 -6.44386,13.68998 -6.44385,22.592281 z" />
    <path d="m 572.78125,-100.19971 c 1.86326,-3.26068 3.95944,-5.71917 6.28857,-7.37549 4.29587,-3.05364 9.18698,-4.58049 14.67334,-4.58056 3.36421,7e-5 5.92622,0.75055 7.68604,2.25146 1.60444,1.34577 2.40668,3.00202 2.40674,4.96875 -6e-5,1.44928 -0.47882,2.63971 -1.43628,3.57129 -0.95757,0.9317 -2.18682,1.397518 -3.68775,1.397463 -1.75981,5.5e-5 -3.28666,-0.724553 -4.58056,-2.173833 l -2.40674,-2.63964 c -1.91508,-2.0185 -4.16654,-3.02777 -6.7544,-3.02784 -3.51956,7e-5 -6.26272,2.27741 -8.22949,6.83204 -1.96682,4.554735 -2.95022,10.89506 -2.95019,19.020992 l 0,14.518066 0.0776,5.900391 c -2e-5,3.519544 0.20701,6.094493 0.6211,7.724853 0.41403,1.630379 1.21628,2.98902 2.40674,4.075928 1.44919,1.397464 4.11471,2.458499 7.99658,3.183106 l 0,1.552734 -34.23779,0 0,-1.552734 c 3.10546,-0.414061 5.33104,-0.996336 6.67675,-1.746827 1.3457,-0.750484 2.43261,-2.031488 3.26075,-3.843017 0.56932,-1.190421 0.97044,-2.989004 1.20336,-5.395752 0.2329,-2.406723 0.34936,-5.887433 0.34937,-10.442139 l 0,-19.176269 c -1e-5,-5.331007 -0.12941,-9.070506 -0.38818,-11.218506 -0.25881,-2.147896 -0.82814,-3.894716 -1.70801,-5.240476 -0.8799,-1.44916 -1.94093,-2.49726 -3.18311,-3.14429 -1.24219,-0.64691 -3.02783,-1.04803 -5.35693,-1.20337 l 0,-1.55273 19.95264,-2.79493 c 0.87985,4.71003 1.3198,8.74713 1.31982,12.11133 z" />
    <path d="m 672.31152,-52.530762 1.31983,0.776367 c -1.86335,5.434572 -6.13337,8.151855 -12.81006,8.151856 -3.67486,-10e-7 -6.72857,-0.905762 -9.16113,-2.717285 -1.60454,-1.190427 -3.26079,-3.260738 -4.96875,-6.210938 -3.46782,3.105473 -6.08158,5.149905 -7.84131,6.133301 -3.36429,1.863281 -7.272,2.794921 -11.72315,2.794922 -5.69337,-10e-7 -10.20924,-1.371582 -13.5476,-4.114746 -3.33839,-2.743159 -5.00758,-6.443839 -5.00757,-11.102051 -10e-6,-4.29588 1.37157,-7.893045 4.11474,-10.791504 1.55273,-1.604466 3.33837,-2.88547 5.35694,-3.843017 2.01854,-0.957491 4.94285,-1.927949 8.77295,-2.911377 4.5029,-1.13864 7.82833,-2.096158 9.97631,-2.872559 2.14792,-0.776332 3.9465,-1.707972 5.39576,-2.794922 1.65621,-1.190391 2.79488,-2.587851 3.41601,-4.192383 0.62105,-1.604449 0.9316,-3.830033 0.93164,-6.676757 -4e-5,-6.055611 -1.13871,-10.480895 -3.41601,-13.275875 -1.0352,-1.29389 -2.36796,-2.32904 -3.99829,-3.10547 -1.63041,-0.77631 -3.32548,-1.16449 -5.08521,-1.16455 -2.1221,6e-5 -4.01126,0.54352 -5.66748,1.63037 -1.65627,1.08697 -2.89846,2.58795 -3.72656,4.50293 l -1.94092,4.502927 c -1.03517,2.432669 -2.89845,3.648977 -5.58984,3.648925 -1.75978,5.2e-5 -3.23488,-0.582223 -4.4253,-1.746826 -1.19043,-1.164497 -1.78565,-2.626656 -1.78564,-4.386476 -10e-6,-2.63959 1.86327,-4.86517 5.58984,-6.67676 2.01854,-0.93157 4.51585,-1.695 7.49195,-2.29028 2.97605,-0.59515 5.88742,-0.89275 8.73413,-0.89282 3.20895,7e-5 6.54732,0.41413 10.01513,1.24219 3.46773,0.82819 6.36617,1.88922 8.69532,3.1831 3.3642,1.9151 5.46039,4.39947 6.28857,7.45313 0.41401,1.552784 0.62104,4.166551 0.62109,7.841305 l 0,28.725586 c -5e-5,4.865248 0.20698,8.177745 0.6211,9.9375 0.87982,3.67481 3.00189,5.51221 6.36621,5.512207 1.60443,3e-6 2.85955,-0.284665 3.76538,-0.854004 0.9057,-0.569331 1.97967,-1.708002 3.22192,-3.416016 z m -25.62011,-30.588867 c -2.79497,2.329137 -5.87455,4.373569 -9.23877,6.133301 -3.77835,2.018585 -6.39212,3.545438 -7.84131,4.580566 -1.44924,1.035183 -2.76907,2.277369 -3.95947,3.726563 -2.43264,3.001974 -3.64895,6.495622 -3.64893,10.480957 -2e-5,3.416025 0.94456,6.236823 2.83374,8.462402 1.88914,2.225589 4.28293,3.33838 7.1814,3.338379 2.5361,10e-7 4.92989,-0.789304 7.18139,-2.36792 2.25143,-1.578608 3.9465,-3.687737 5.08521,-6.327392 1.60445,-3.46776 2.40669,-8.488263 2.40674,-15.061524 z" />
    <path d="m 693.97217,-110.99121 19.79736,0 0,2.95019 -19.79736,0 0,45.184575 c -2e-5,5.434582 0.93162,9.316414 2.79492,11.645508 0.98337,1.29395 2.27732,2.303226 3.88184,3.027832 1.60446,0.724611 3.33834,1.086916 5.20166,1.086914 2.32906,2e-6 4.26998,-0.478758 5.82275,-1.43628 1.55269,-0.957515 3.2607,-2.704339 5.12402,-5.240478 l 1.16455,1.009277 c -1.70805,3.105474 -4.10184,5.408694 -7.18139,6.909668 -3.07963,1.500976 -6.92264,2.251464 -11.52906,2.251465 -6.10744,-10e-7 -10.55861,-1.19043 -13.35351,-3.571289 -1.50099,-1.242184 -2.48439,-2.73022 -2.9502,-4.464111 -0.46583,-1.733879 -0.69874,-4.852284 -0.69873,-9.355225 l 0,-47.047856 -8.30713,0 0,-1.24218 c 3.36426,-1.08685 6.46972,-3.18304 9.31641,-6.28858 1.708,-1.91496 3.07958,-3.81706 4.11475,-5.7063 1.03514,-1.88908 2.01853,-4.33463 2.95019,-7.33667 l 0.77637,-2.56201 2.87256,0 z" />
    <path d="m 717.88428,-77.762695 c -10e-6,-8.384725 3.10546,-15.863721 9.3164,-22.437015 7.55662,-7.97064 16.58835,-11.95598 27.09522,-11.95605 10.50678,7e-5 19.51263,3.98541 27.01758,11.95605 6.21086,6.625052 9.31633,14.129927 9.3164,22.514651 -7e-5,8.281275 -2.95027,15.656756 -8.85058,22.126465 -7.24616,7.970706 -16.40728,11.956054 -27.4834,11.956055 -11.0762,-10e-7 -20.26321,-3.985349 -27.56104,-11.956055 -2.84669,-3.105455 -5.03345,-6.573225 -6.5603,-10.40332 -1.52686,-3.830053 -2.29029,-7.763643 -2.29028,-11.800781 z m 14.12988,-0.854004 c -2e-5,9.005884 2.01853,16.640153 6.05566,22.902832 4.55466,6.987308 10.11862,10.480957 16.6919,10.480957 2.79488,0 5.51216,-0.776366 8.15185,-2.329102 2.6396,-1.55273 4.91694,-3.726556 6.83204,-6.521484 2.01849,-2.898426 3.64886,-6.534408 4.89111,-10.907959 1.24212,-4.373511 1.86322,-8.604708 1.86328,-12.693604 -6e-5,-4.244103 -0.65997,-8.527058 -1.97974,-12.848877 -1.31988,-4.321727 -3.09258,-8.035346 -5.31811,-11.140864 -4.24419,-5.84857 -9.44585,-8.77289 -15.60498,-8.77295 -5.84867,6e-5 -10.89505,3.07965 -15.13916,9.23877 -4.29592,6.159225 -6.44387,13.68998 -6.44385,22.592281 z" />
    <path d="m 798.39355,-109.51611 22.28174,-2.79493 0,44.874028 0.0776,5.900391 c -3e-5,3.519544 0.20701,6.094493 0.62109,7.724853 0.41404,1.630379 1.21628,2.98902 2.40674,4.075928 1.44919,1.397464 4.11472,2.458499 7.99658,3.183106 l 0,1.552734 -34.23779,0 0,-1.552734 c 3.10546,-0.414061 5.33105,-0.996336 6.67676,-1.746827 1.34569,-0.750484 2.4326,-2.031488 3.26074,-3.843017 0.56932,-1.190421 0.97045,-2.989004 1.20337,-5.395752 0.2329,-2.406723 0.34935,-5.887433 0.34937,-10.442139 l 0,-19.176269 c -2e-5,-5.331007 -0.12941,-9.070506 -0.38819,-11.218506 -0.2588,-2.147896 -0.82814,-3.894716 -1.70801,-5.240476 -0.87989,-1.44916 -1.94092,-2.49726 -3.1831,-3.14429 -1.2422,-0.64691 -3.02784,-1.04803 -5.35694,-1.20337 z m 16.14844,-30.51123 c -2.01857,9e-5 -3.68776,-0.64688 -5.00757,-1.94092 -1.31983,-1.29385 -1.97974,-2.92422 -1.97973,-4.89111 -1e-5,-1.91494 0.67284,-3.53237 2.01855,-4.8523 1.34569,-1.31972 3.00194,-1.97963 4.96875,-1.97974 1.96678,1.1e-4 3.62303,0.66002 4.96875,1.97974 1.34568,1.31993 2.01853,2.93736 2.01856,4.8523 -3e-5,1.96689 -0.65994,3.59726 -1.97974,4.89111 -1.31985,1.29404 -2.98903,1.94101 -5.00757,1.94092 z" />
    <path d="m 858.17383,-100.19971 c 1.86325,-3.26068 3.95944,-5.71917 6.28857,-7.37549 4.29587,-3.05364 9.18697,-4.58049 14.67334,-4.58056 3.36421,7e-5 5.92622,0.75055 7.68604,2.25146 1.60444,1.34577 2.40668,3.00202 2.40674,4.96875 -6e-5,1.44928 -0.47882,2.63971 -1.43628,3.57129 -0.95758,0.9317 -2.18682,1.397518 -3.68775,1.397463 -1.75981,5.5e-5 -3.28667,-0.724553 -4.58056,-2.173833 l -2.40674,-2.63964 c -1.91508,-2.0185 -4.16655,-3.02777 -6.7544,-3.02784 -3.51956,7e-5 -6.26272,2.27741 -8.22949,6.83204 -1.96682,4.554735 -2.95022,10.89506 -2.95019,19.020992 l 0,14.518066 0.0776,5.900391 c -2e-5,3.519544 0.20701,6.094493 0.6211,7.724853 0.41403,1.630379 1.21628,2.98902 2.40673,4.075928 1.44919,1.397464 4.11472,2.458499 7.99659,3.183106 l 0,1.552734 -34.2378,0 0,-1.552734 c 3.10547,-0.414061 5.33105,-0.996336 6.67676,-1.746827 1.34569,-0.750484 2.43261,-2.031488 3.26074,-3.843017 0.56933,-1.190421 0.97045,-2.989004 1.20337,-5.395752 0.2329,-2.406723 0.34935,-5.887433 0.34937,-10.442139 l 0,-19.176269 c -2e-5,-5.331007 -0.12941,-9.070506 -0.38819,-11.218506 -0.2588,-2.147896 -0.82813,-3.894716 -1.708,-5.240476 -0.8799,-1.44916 -1.94093,-2.49726 -3.18311,-3.14429 -1.24219,-0.64691 -3.02784,-1.04803 -5.35693,-1.20337 l 0,-1.55273 19.95263,-2.79493 c 0.87986,4.71003 1.3198,8.74713 1.31983,12.11133 z" />
    <path d="m 907.70605,-87.234375 c -0.20704,2.536173 -0.31056,4.373573 -0.31054,5.512207 -2e-5,4.502962 0.65989,8.902372 1.97973,13.198242 1.31981,4.295918 3.11839,7.867203 5.39576,10.713867 2.32907,2.898448 5.21456,5.175789 8.65649,6.832032 3.44186,1.656254 7.05196,2.484378 10.83032,2.484375 2.79488,3e-6 5.44746,-0.465817 7.95777,-1.397461 2.51019,-0.931635 4.59344,-2.225579 6.24975,-3.881836 1.86322,-1.811513 3.46771,-4.709948 4.81348,-8.695313 l 1.55273,0.543457 c -1.34576,6.055675 -4.23126,10.623298 -8.65649,13.702881 -4.42535,3.07959 -10.31279,4.619384 -17.66235,4.619385 -6.36625,-10e-7 -11.82669,-1.009278 -16.38135,-3.027832 -4.55471,-2.018551 -8.41066,-5.124017 -11.56787,-9.316406 -4.39942,-5.848616 -6.59913,-13.042945 -6.59912,-21.583008 -1e-5,-11.645464 4.16649,-20.780709 12.49951,-27.405765 6.05564,-4.81341 12.9653,-7.22014 20.729,-7.22021 4.14058,7e-5 7.97066,0.73761 11.49024,2.21264 3.51947,1.47517 6.49554,3.61017 8.92822,6.40503 3.77826,4.347715 5.66741,9.782279 5.66748,16.303715 z m 34.00489,-3.027832 c -0.36236,-5.175731 -1.31988,-9.161078 -2.87256,-11.956053 -1.39751,-2.53607 -3.26079,-4.54169 -5.58984,-6.01685 -2.32915,-1.47503 -4.81352,-2.21258 -7.45313,-2.21264 -4.4512,6e-5 -8.34598,1.9151 -11.68433,5.74511 -3.3384,3.83014 -5.31813,8.643609 -5.93921,14.440433 z" />
    
    <path d="m 257.11035,101.50049 0,27.87158 c -4e-5,5.27932 0.29757,9.19997 0.89282,11.76196 0.59518,2.56202 1.69503,4.67115 3.29956,6.3274 1.39742,1.44922 3.01485,2.52319 4.8523,3.22192 1.83735,0.69873 4.25703,1.12573 7.25903,1.28101 l 0,1.78564 -49.60986,0 0,-1.78564 c 3.00195,-0.15528 5.42162,-0.58228 7.25903,-1.28101 1.83739,-0.69873 3.45482,-1.7727 4.8523,-3.22192 1.65623,-1.65625 2.76902,-3.75244 3.33838,-6.28858 0.56931,-2.53612 0.85398,-6.46971 0.854,-11.80078 l 0,-57.218261 c -2e-5,-4.451086 -0.19411,-7.880038 -0.58228,-10.286866 -0.3882,-2.406644 -1.04811,-4.360499 -1.97973,-5.861572 -1.34572,-2.070213 -3.05373,-3.610006 -5.12403,-4.619385 -2.07032,-1.009174 -4.76172,-1.617327 -8.07421,-1.824463 l -0.54346,0 0,-1.785644 46.81494,0 c 8.17768,1.06e-4 14.20746,0.414168 18.08936,1.242187 3.88176,0.828229 7.42717,2.484478 10.63623,4.96875 7.34952,5.589938 11.02432,13.043056 11.02441,22.359375 -9e-5,9.471748 -3.72665,16.407288 -11.17969,20.806641 -3.88191,2.277398 -8.59186,3.648978 -14.12988,4.114748 -1.75983,0.15532 -6.00396,0.23296 -12.73242,0.23291 z m 0,-2.484377 7.6084,0 c 5.12397,5.5e-5 9.0705,-0.375189 11.8396,-1.125732 2.76898,-0.750432 5.24042,-2.134952 7.41431,-4.153565 5.07219,-4.60638 7.60832,-10.739675 7.60839,-18.399902 -7e-5,-4.244058 -0.73761,-8.138829 -2.21264,-11.684326 -1.47517,-3.545317 -3.5843,-6.430812 -6.32739,-8.656494 -3.15729,-2.639547 -6.90973,-4.19228 -11.25733,-4.658203 -1.19048,-0.103412 -3.90776,-0.15517 -8.15185,-0.155274 l -6.52149,0 z" />
    <path d="m 380.39746,146.21924 1.31983,0.77637 c -1.86335,5.43457 -6.13337,8.15185 -12.81006,8.15185 -3.67486,0 -6.72857,-0.90576 -9.16114,-2.71728 -1.60453,-1.19043 -3.26078,-3.26074 -4.96875,-6.21094 -3.46781,3.10547 -6.08158,5.1499 -7.8413,6.1333 -3.36429,1.86328 -7.27201,2.79492 -11.72315,2.79492 -5.69338,0 -10.20924,-1.37158 -13.54761,-4.11475 -3.33838,-2.74315 -5.00757,-6.44383 -5.00757,-11.10205 0,-4.29588 1.37158,-7.89304 4.11475,-10.7915 1.55272,-1.60447 3.33837,-2.88547 5.35693,-3.84302 2.01854,-0.95749 4.94286,-1.92795 8.77295,-2.91137 4.50291,-1.13864 7.82834,-2.09616 9.97632,-2.87256 2.14792,-0.77634 3.9465,-1.70797 5.39575,-2.79492 1.65621,-1.1904 2.79488,-2.58786 3.41602,-4.19239 0.62105,-1.60445 0.9316,-3.83003 0.93164,-6.67676 -4e-5,-6.055606 -1.13871,-10.480894 -3.41602,-13.275874 -1.03519,-1.293883 -2.36795,-2.329038 -3.99829,-3.105469 -1.6304,-0.776302 -3.32547,-1.164485 -5.0852,-1.164551 -2.1221,6.6e-5 -4.01126,0.543522 -5.66748,1.630371 -1.65627,1.086977 -2.89846,2.587952 -3.72656,4.50293 l -1.94092,4.50293 c -1.03518,2.432673 -2.89846,3.648973 -5.58985,3.648923 -1.75977,5e-5 -3.23487,-0.58222 -4.42529,-1.74682 -1.19044,-1.164501 -1.78565,-2.626657 -1.78564,-4.386478 -1e-5,-2.639589 1.86327,-4.865173 5.58984,-6.676758 2.01854,-0.931576 4.51585,-1.695003 7.49194,-2.290283 2.97605,-0.595148 5.88743,-0.892756 8.73413,-0.892823 3.20896,6.7e-5 6.54733,0.41413 10.01514,1.242188 3.46773,0.82819 6.36617,1.889224 8.69531,3.183105 3.36421,1.9151 5.4604,4.399473 6.28858,7.453125 0.41401,1.552784 0.62104,4.166554 0.62109,7.841304 l 0,28.72559 c -5e-5,4.86525 0.20698,8.17775 0.6211,9.9375 0.87982,3.67481 3.00189,5.51221 6.36621,5.51221 1.60443,0 2.85955,-0.28467 3.76538,-0.85401 0.90569,-0.56933 1.97967,-1.708 3.22192,-3.41601 z m -25.62012,-30.58887 c -2.79496,2.32914 -5.87454,4.37357 -9.23877,6.1333 -3.77835,2.01859 -6.39211,3.54544 -7.8413,4.58057 -1.44925,1.03518 -2.76907,2.27737 -3.95948,3.72656 -2.43263,3.00197 -3.64894,6.49562 -3.64892,10.48096 -2e-5,3.41602 0.94456,6.23682 2.83374,8.4624 1.88913,2.22559 4.28293,3.33838 7.18139,3.33838 2.53611,0 4.9299,-0.78931 7.1814,-2.36792 2.25143,-1.57861 3.94649,-3.68774 5.08521,-6.32739 1.60445,-3.46776 2.40669,-8.48827 2.40673,-15.06153 z" />
    <path d="m 437.92627,155.06982 c -0.67291,-3.10546 -1.00933,-6.28857 -1.00928,-9.54931 -6.46977,6.41797 -14.12992,9.62695 -22.98047,9.62695 -6.46975,0 -11.67141,-1.57861 -15.60498,-4.73584 -3.83009,-3.10546 -5.74513,-7.50487 -5.74511,-13.19824 l 0,-27.01758 -0.0776,-5.90039 c -10e-6,-3.51948 -0.20704,-6.081487 -0.62109,-7.686035 -0.41408,-1.604433 -1.19045,-2.976014 -2.32911,-4.114746 -1.50098,-1.397398 -4.19238,-2.432554 -8.07422,-3.105469 l 0,-1.630371 22.74756,0 0,39.361821 c -2e-5,5.5381 0.19407,9.63991 0.58228,12.30542 0.38816,2.66553 1.09983,4.8523 2.13501,6.5603 1.13864,1.75977 2.76901,3.14429 4.89111,4.15356 2.12204,1.00928 4.5029,1.51392 7.14258,1.51392 2.8984,0 5.61568,-0.56933 8.15186,-1.70801 2.53608,-1.13867 4.52875,-2.6914 5.97802,-4.6582 1.50092,-2.01855 2.49726,-4.34765 2.98902,-6.98731 0.49164,-2.63963 0.73749,-6.98728 0.73755,-13.04297 l 0,-15.21679 -0.0776,-5.74512 c -6e-5,-3.51948 -0.19415,-6.081487 -0.58228,-7.686035 -0.38824,-1.604433 -1.17754,-2.976014 -2.36792,-4.114746 -1.44927,-1.397398 -4.14067,-2.432554 -8.07422,-3.105469 l 0,-1.630371 22.74756,0 0,42.156741 c -7e-5,5.33107 0.14227,9.07057 0.42701,11.2185 0.28459,2.14796 0.84099,3.89479 1.66918,5.24048 0.93157,1.44923 2.01849,2.49732 3.26075,3.14429 1.24211,0.64698 3.02775,1.0481 5.35693,1.20337 l 0,1.55273 z" />
    <path d="m 464.24512,47.465332 22.28174,-2.794922 0,86.64258 0.0776,5.90039 c -2e-5,3.51954 0.20701,6.09449 0.6211,7.72485 0.41403,1.63038 1.21628,2.98902 2.40673,4.07593 1.44919,1.39746 4.11472,2.4585 7.99659,3.18311 l 0,1.55273 -34.2378,0 0,-1.55273 c 3.10547,-0.41406 5.33105,-0.99634 6.67676,-1.74683 1.34569,-0.75048 2.43261,-2.03149 3.26074,-3.84302 0.56933,-1.19042 0.97045,-2.989 1.20337,-5.39575 0.2329,-2.40672 0.34935,-5.88743 0.34937,-10.44214 l 0,-60.944823 c -2e-5,-5.279208 -0.12941,-9.005766 -0.38819,-11.179687 -0.2588,-2.173731 -0.82813,-3.933495 -1.708,-5.279297 -0.8799,-1.449117 -1.94093,-2.484272 -3.18311,-3.105469 -1.24219,-0.62099 -3.02784,-1.009173 -5.35693,-1.164551 z" />
    
    <path d="m 576.66309,101.50049 0,27.87158 c -4e-5,5.27932 0.29757,9.19997 0.89282,11.76196 0.59517,2.56202 1.69503,4.67115 3.29956,6.3274 1.39742,1.44922 3.01485,2.52319 4.85229,3.22192 1.83736,0.69873 4.25703,1.12573 7.25904,1.28101 l 0,1.78564 -49.60987,0 0,-1.78564 c 3.00195,-0.15528 5.42163,-0.58228 7.25904,-1.28101 1.83739,-0.69873 3.45482,-1.7727 4.85229,-3.22192 1.65623,-1.65625 2.76903,-3.75244 3.33838,-6.28858 0.56932,-2.53612 0.85398,-6.46971 0.854,-11.80078 l 0,-57.218261 c -2e-5,-4.451086 -0.19411,-7.880038 -0.58227,-10.286866 -0.3882,-2.406644 -1.04812,-4.360499 -1.97974,-5.861572 -1.34572,-2.070213 -3.05372,-3.610006 -5.12402,-4.619385 -2.07032,-1.009174 -4.76173,-1.617327 -8.07422,-1.824463 l -0.54346,0 0,-1.785644 46.81494,0 c 8.17768,1.06e-4 14.20746,0.414168 18.08936,1.242187 3.88176,0.828229 7.42717,2.484478 10.63623,4.96875 7.34952,5.589938 11.02432,13.043056 11.02441,22.359375 -9e-5,9.471748 -3.72664,16.407288 -11.17968,20.806641 -3.88191,2.277398 -8.59187,3.648978 -14.12989,4.114748 -1.75982,0.15532 -6.00396,0.23296 -12.73242,0.23291 z m 0,-2.484377 7.60839,0 c 5.12398,5.5e-5 9.07051,-0.375189 11.8396,-1.125732 2.76899,-0.750432 5.24042,-2.134952 7.41431,-4.153565 5.0722,-4.60638 7.60833,-10.739675 7.6084,-18.399902 -7e-5,-4.244058 -0.73762,-8.138829 -2.21265,-11.684326 -1.47516,-3.545317 -3.58429,-6.430812 -6.32739,-8.656494 -3.15729,-2.639547 -6.90972,-4.19228 -11.25732,-4.658203 -1.19048,-0.103412 -3.90777,-0.15517 -8.15186,-0.155274 l -6.52148,0 z" />
    <path d="m 699.9502,146.21924 1.31982,0.77637 c -1.86335,5.43457 -6.13336,8.15185 -12.81006,8.15185 -3.67486,0 -6.72856,-0.90576 -9.16113,-2.71728 -1.60454,-1.19043 -3.26079,-3.26074 -4.96875,-6.21094 -3.46781,3.10547 -6.08158,5.1499 -7.84131,6.1333 -3.36429,1.86328 -7.272,2.79492 -11.72315,2.79492 -5.69337,0 -10.20924,-1.37158 -13.5476,-4.11475 -3.33839,-2.74315 -5.00758,-6.44383 -5.00757,-11.10205 -1e-5,-4.29588 1.37158,-7.89304 4.11475,-10.7915 1.55272,-1.60447 3.33836,-2.88547 5.35693,-3.84302 2.01854,-0.95749 4.94285,-1.92795 8.77295,-2.91137 4.5029,-1.13864 7.82834,-2.09616 9.97632,-2.87256 2.14791,-0.77634 3.94649,-1.70797 5.39575,-2.79492 1.65621,-1.1904 2.79488,-2.58786 3.41601,-4.19239 0.62106,-1.60445 0.9316,-3.83003 0.93164,-6.67676 -4e-5,-6.055606 -1.13871,-10.480894 -3.41601,-13.275874 -1.0352,-1.293883 -2.36796,-2.329038 -3.99829,-3.105469 -1.63041,-0.776302 -3.32547,-1.164485 -5.08521,-1.164551 -2.1221,6.6e-5 -4.01125,0.543522 -5.66748,1.630371 -1.65627,1.086977 -2.89846,2.587952 -3.72656,4.50293 l -1.94092,4.50293 c -1.03517,2.432673 -2.89845,3.648973 -5.58984,3.648923 -1.75978,5e-5 -3.23488,-0.58222 -4.42529,-1.74682 -1.19044,-1.164501 -1.78566,-2.626657 -1.78565,-4.386478 -10e-6,-2.639589 1.86327,-4.865173 5.58984,-6.676758 2.01854,-0.931576 4.51586,-1.695003 7.49195,-2.290283 2.97605,-0.595148 5.88742,-0.892756 8.73413,-0.892823 3.20895,6.7e-5 6.54733,0.41413 10.01514,1.242188 3.46773,0.82819 6.36616,1.889224 8.69531,3.183105 3.3642,1.9151 5.46039,4.399473 6.28857,7.453125 0.41401,1.552784 0.62104,4.166554 0.6211,7.841304 l 0,28.72559 c -6e-5,4.86525 0.20697,8.17775 0.62109,9.9375 0.87983,3.67481 3.00189,5.51221 6.36621,5.51221 1.60443,0 2.85956,-0.28467 3.76538,-0.85401 0.9057,-0.56933 1.97967,-1.708 3.22193,-3.41601 z m -25.62012,-30.58887 c -2.79496,2.32914 -5.87455,4.37357 -9.23877,6.1333 -3.77835,2.01859 -6.39212,3.54544 -7.84131,4.58057 -1.44924,1.03518 -2.76907,2.27737 -3.95947,3.72656 -2.43264,3.00197 -3.64895,6.49562 -3.64893,10.48096 -2e-5,3.41602 0.94456,6.23682 2.83374,8.4624 1.88914,2.22559 4.28294,3.33838 7.1814,3.33838 2.5361,0 4.9299,-0.78931 7.18139,-2.36792 2.25143,-1.57861 3.9465,-3.68774 5.08521,-6.32739 1.60445,-3.46776 2.4067,-8.48827 2.40674,-15.06153 z" />
    <path d="m 702.43457,89.233887 22.28174,-2.794922 0,44.874025 0.0776,5.90039 c -3e-5,3.51954 0.207,6.09449 0.62109,7.72485 0.41404,1.63038 1.21628,2.98902 2.40674,4.07593 1.44919,1.39746 4.11471,2.4585 7.99658,3.18311 l 0,1.55273 -34.23779,0 0,-1.55273 c 3.10546,-0.41406 5.33104,-0.99634 6.67675,-1.74683 1.3457,-0.75048 2.43261,-2.03149 3.26075,-3.84302 0.56932,-1.19042 0.97044,-2.989 1.20337,-5.39575 0.23289,-2.40672 0.34935,-5.88743 0.34936,-10.44214 l 0,-19.17627 c -10e-6,-5.33101 -0.12941,-9.0705 -0.38818,-11.2185 -0.2588,-2.147898 -0.82814,-3.894722 -1.70801,-5.240483 -0.87989,-1.449158 -1.94093,-2.497253 -3.18311,-3.144287 -1.24219,-0.64691 -3.02783,-1.048033 -5.35693,-1.203369 z m 16.14844,-30.511231 c -2.01857,9.5e-5 -3.68776,-0.646877 -5.00757,-1.940918 -1.31984,-1.293847 -1.97975,-2.924216 -1.97974,-4.891113 -10e-6,-1.914935 0.67284,-3.532365 2.01856,-4.852295 1.34569,-1.319716 3.00193,-1.979628 4.96875,-1.979736 1.96677,1.08e-4 3.62302,0.66002 4.96875,1.979736 1.34568,1.31993 2.01853,2.93736 2.01855,4.852295 -2e-5,1.966897 -0.65994,3.597266 -1.97973,4.891113 -1.31985,1.294041 -2.98904,1.941013 -5.00757,1.940918 z" />
    <path d="m 762.13721,86.438965 c 0.72458,3.002017 1.08689,5.796936 1.08691,8.384765 l 0,1.242188 c 6.41794,-6.314389 14.05221,-9.471613 22.90283,-9.47168 6.62495,6.7e-5 11.956,1.5528 15.99317,4.658203 3.98528,3.053771 5.97795,7.401423 5.97802,13.042969 l 0,32.91797 c -7e-5,3.51954 0.20697,6.09449 0.6211,7.72485 0.41399,1.63038 1.21623,2.98902 2.40674,4.07593 1.44914,1.39746 4.11467,2.4585 7.99658,3.18311 l 0,1.55273 -34.23779,0 0,-1.55273 c 3.10541,-0.41406 5.331,-0.99634 6.67675,-1.74683 1.34565,-0.75048 2.43256,-2.03149 3.26075,-3.84302 0.56927,-1.19042 0.9704,-2.989 1.20336,-5.39575 0.23286,-2.40672 0.34931,-5.86155 0.34937,-10.3645 l 0,-16.45899 c -6e-5,-5.64155 -0.19415,-9.78217 -0.58228,-12.42187 -0.38824,-2.639595 -1.12578,-4.761664 -2.21264,-6.366212 -1.19049,-1.811464 -2.89849,-3.221863 -5.12403,-4.231202 -2.22563,-1.009213 -4.68412,-1.513852 -7.37548,-1.513916 -2.89848,6.4e-5 -5.60282,0.5694 -8.11304,1.708008 -2.51029,1.138733 -4.49002,2.691466 -5.93921,4.658203 -1.55276,2.070368 -2.57498,4.412409 -3.06665,7.026119 -0.49172,2.61382 -0.73757,6.94853 -0.73755,13.00415 l 0,15.2168 0.0776,5.74512 c -3e-5,3.51954 0.207,6.09449 0.62109,7.72485 0.41404,1.63038 1.21628,2.98902 2.40674,4.07593 1.44919,1.39746 4.11471,2.4585 7.99658,3.18311 l 0,1.55273 -34.23779,0 0,-1.55273 c 3.10546,-0.41406 5.33105,-0.99634 6.67676,-1.74683 1.34569,-0.75048 2.4326,-2.03149 3.26074,-3.84302 0.56932,-1.19042 0.97044,-2.989 1.20337,-5.39575 0.23289,-2.40672 0.34935,-5.88743 0.34936,-10.44214 l 0,-19.17627 c -10e-6,-5.33101 -0.1294,-9.0705 -0.38818,-11.2185 -0.2588,-2.147898 -0.82814,-3.894722 -1.70801,-5.240483 -0.87989,-1.449158 -1.94093,-2.497253 -3.1831,-3.144287 -1.2422,-0.64691 -3.02784,-1.048033 -5.35694,-1.203369 l 0,-1.552734 z" />
    <path d="m 823.8584,47.465332 22.28174,-2.794922 0,86.64258 0.0776,5.90039 c -2e-5,3.51954 0.20701,6.09449 0.6211,7.72485 0.41403,1.63038 1.21628,2.98902 2.40674,4.07593 1.44918,1.39746 4.11471,2.4585 7.99658,3.18311 l 0,1.55273 -34.2378,0 0,-1.55273 c 3.10547,-0.41406 5.33105,-0.99634 6.67676,-1.74683 1.3457,-0.75048 2.43261,-2.03149 3.26074,-3.84302 0.56933,-1.19042 0.97045,-2.989 1.20337,-5.39575 0.2329,-2.40672 0.34936,-5.88743 0.34937,-10.44214 l 0,-60.944823 c -10e-6,-5.279208 -0.12941,-9.005766 -0.38818,-11.179687 -0.25881,-2.173731 -0.82814,-3.933495 -1.70801,-5.279297 -0.8799,-1.449117 -1.94093,-2.484272 -3.18311,-3.105469 -1.24219,-0.62099 -3.02784,-1.009173 -5.35693,-1.164551 z" />
    <path d="m 877.89355,111.51562 c -0.20704,2.53618 -0.31056,4.37358 -0.31054,5.51221 -2e-5,4.50296 0.65989,8.90237 1.97973,13.19824 1.31981,4.29592 3.11839,7.86721 5.39576,10.71387 2.32907,2.89845 5.21456,5.17579 8.65649,6.83203 3.44186,1.65626 7.05196,2.48438 10.83032,2.48438 2.79488,0 5.44746,-0.46582 7.95777,-1.39746 2.51019,-0.93164 4.59344,-2.22558 6.24975,-3.88184 1.86322,-1.81151 3.46771,-4.70995 4.81348,-8.69531 l 1.55273,0.54346 c -1.34576,6.05567 -4.23126,10.62329 -8.65649,13.70288 -4.42535,3.07959 -10.31279,4.61938 -17.66235,4.61938 -6.36625,0 -11.82669,-1.00928 -16.38135,-3.02783 -4.55471,-2.01855 -8.41066,-5.12402 -11.56787,-9.31641 -4.39942,-5.84861 -6.59913,-13.04294 -6.59912,-21.58301 -1e-5,-11.64546 4.16649,-20.7807 12.49951,-27.405757 6.05564,-4.813412 12.9653,-7.220148 20.729,-7.220215 4.14058,6.7e-5 7.97066,0.737616 11.49024,2.212647 3.51947,1.475161 6.49554,3.610169 8.92822,6.405029 3.77826,4.347711 5.66741,9.782276 5.66748,16.303706 z m 34.00489,-3.02783 c -0.36236,-5.17573 -1.31988,-9.161075 -2.87256,-11.956052 -1.39751,-2.536073 -3.26079,-4.541686 -5.58984,-6.016845 -2.32915,-1.475033 -4.81352,-2.212581 -7.45313,-2.212647 -4.4512,6.6e-5 -8.34598,1.915103 -11.68433,5.745117 -3.3384,3.830134 -5.31813,8.643607 -5.93921,14.440427 z" />
    <path d="m 930.06543,87.758789 30.04541,0 0,1.630371 c -2.27737,0.465884 -3.8301,0.983462 -4.6582,1.552735 -1.65628,1.035218 -2.4844,2.691466 -2.48438,4.96875 -2e-5,1.397517 0.25877,3.027886 0.77637,4.891115 0.51755,1.86333 1.47507,4.58061 2.87256,8.15185 l 12.57715,31.90869 12.65478,-33.22851 c 1.86323,-4.91694 2.79487,-8.565864 2.79492,-10.946778 -5e-5,-2.587831 -0.8023,-4.47699 -2.40674,-5.667481 -0.82817,-0.62103 -2.35502,-1.164487 -4.58056,-1.630371 l 0,-1.630371 21.42773,0 0,1.630371 c -2.8985,0.724673 -5.2276,2.018617 -6.9873,3.881836 -2.22565,2.32916 -4.78766,7.220264 -7.68604,14.673344 l -17.93408,45.80566 -4.19238,0 -19.48682,-48.13477 c -3.00196,-7.401307 -5.14991,-11.878354 -6.44385,-13.431148 -0.72461,-0.828063 -1.52686,-1.436216 -2.40673,-1.824463 -0.87989,-0.38812 -2.17383,-0.711606 -3.88184,-0.970459 z" />
    <path d="m 1015.4658,111.51562 c -0.207,2.53618 -0.3105,4.37358 -0.3105,5.51221 0,4.50296 0.6599,8.90237 1.9797,13.19824 1.3198,4.29592 3.1184,7.86721 5.3958,10.71387 2.329,2.89845 5.2145,5.17579 8.6565,6.83203 3.4418,1.65626 7.0519,2.48438 10.8303,2.48438 2.7949,0 5.4474,-0.46582 7.9577,-1.39746 2.5102,-0.93164 4.5935,-2.22558 6.2498,-3.88184 1.8632,-1.81151 3.4677,-4.70995 4.8135,-8.69531 l 1.5527,0.54346 c -1.3458,6.05567 -4.2313,10.62329 -8.6565,13.70288 -4.4253,3.07959 -10.3128,4.61938 -17.6623,4.61938 -6.3663,0 -11.8267,-1.00928 -16.3814,-3.02783 -4.5547,-2.01855 -8.4106,-5.12402 -11.5679,-9.31641 -4.3994,-5.84861 -6.5991,-13.04294 -6.5991,-21.58301 0,-11.64546 4.1665,-20.7807 12.4995,-27.405757 6.0557,-4.813412 12.9653,-7.220148 20.729,-7.220215 4.1406,6.7e-5 7.9707,0.737616 11.4903,2.212647 3.5194,1.475161 6.4955,3.610169 8.9282,6.405029 3.7783,4.347711 5.6674,9.782276 5.6675,16.303706 z m 34.0049,-3.02783 c -0.3624,-5.17573 -1.3199,-9.161075 -2.8726,-11.956052 -1.3975,-2.536073 -3.2607,-4.541686 -5.5898,-6.016845 -2.3291,-1.475033 -4.8135,-2.212581 -7.4531,-2.212647 -4.4512,6.6e-5 -8.346,1.915103 -11.6844,5.745117 -3.3384,3.830134 -5.3181,8.643607 -5.9392,14.440427 z m -22.3594,-32.374509 14.2075,-21.194824 14.4405,0 -24.8438,21.194824 z" />
</g>    
</svg> 
